<?xml version="1.0" standalone="no"?>
<!DOCTYPE svg PUBLIC "-//W3C//DTD SVG 20010904//EN"
 "http://www.w3.org/TR/2001/REC-SVG-20010904/DTD/svg10.dtd">
<svg version="1.0" xmlns="http://www.w3.org/2000/svg"
 width="201.000000pt" height="201.000000pt" viewBox="0 0 201.000000 201.000000"
 preserveAspectRatio="xMidYMid meet">
<metadata>
Created by potrace 1.11, written by Peter Selinger 2001-2013
</metadata>
<g transform="translate(0.000000,201.000000) scale(0.100000,-0.100000)"
fill="#000000" stroke="none">
<path d="M219 1737 c0 -12 -1 -348 -1 -747 l-1 -725 136 -3 137 -3 0 137 0
137 66 88 67 88 56 -31 c31 -17 61 -34 66 -38 6 -4 35 -21 65 -37 109 -59 245
-137 270 -153 24 -17 27 -16 105 21 44 21 106 50 138 65 33 14 55 30 50 34 -4
5 -60 38 -123 73 -63 35 -136 76 -162 90 -27 15 -69 39 -95 53 -134 75 -208
117 -212 120 -3 3 62 103 91 139 11 13 62 83 133 180 32 44 69 94 82 112 13
17 23 35 23 40 0 5 -66 8 -146 8 -119 0 -148 -3 -157 -16 -7 -8 -79 -107 -162
-219 l-150 -204 -3 407 -2 406 -135 0 c-131 -1 -135 -2 -136 -22z"/>
<path d="M1495 1316 c-52 -23 -78 -60 -82 -118 -3 -41 1 -61 16 -85 57 -90
194 -85 242 9 23 44 24 77 5 122 -27 65 -115 100 -181 72z"/>
<path d="M1713 1011 c-17 -27 -92 -61 -144 -64 -49 -4 -46 3 -32 -97 4 -30 8
-113 8 -185 -1 -107 -5 -142 -24 -200 -23 -71 -70 -163 -98 -190 -13 -14 -2
-15 108 -13 l124 3 37 71 c39 73 81 206 92 285 10 76 9 200 -4 269 -23 133
-40 164 -67 121z"/>
<path d="M1342 485 c-47 -103 -171 -155 -281 -118 -33 11 -46 12 -55 3 -26
-27 97 -67 171 -55 93 14 203 103 203 164 0 28 -26 33 -38 6z"/>
<path d="M1381 444 c-42 -78 -130 -140 -213 -148 -24 -3 -69 2 -101 11 -44 12
-61 13 -70 4 -16 -16 -1 -27 58 -44 102 -29 207 -5 292 67 42 37 96 126 85
141 -15 21 -29 12 -51 -31z"/>
</g>
</svg>
