<?xml version="1.0" encoding="utf-8"?>
<!-- Generator: Adobe Illustrator 16.0.0, SVG Export Plug-In . SVG Version: 6.00 Build 0)  -->
<!DOCTYPE svg PUBLIC "-//W3C//DTD SVG 1.1//EN" "http://www.w3.org/Graphics/SVG/1.1/DTD/svg11.dtd">
<svg version="1.1" id="Layer_1" xmlns="http://www.w3.org/2000/svg" xmlns:xlink="http://www.w3.org/1999/xlink" x="0px" y="0px"
	 width="200px" height="200px" viewBox="0 0 200 200" enable-background="new 0 0 200 200" xml:space="preserve">
<g>
	<polygon fill="#CB2027" points="76.594,109.685 77.193,108.879 111.278,62.174 81.391,62.174 48.417,106.884 48.417,25 21.422,25 
		21.422,174.393 48.417,174.393 48.417,146.73 61.918,129.235 61.957,129.196 61.918,129.352 110.239,156.759 137.919,143.969 	"/>
	<g>
		<path fill="#CB2027" d="M154.358,106.206c-0.994,0-1.961-0.089-2.928-0.194c5.006,20.295,6.761,47.563-10.328,68.387h23.312
			c0,0,24.357-34.302,9.189-77.635C169.147,102.498,162.203,106.206,154.358,106.206z"/>
		<path fill="#CB2027" d="M168.253,81.788c0,7.682-6.217,13.896-13.895,13.896c-7.684,0-13.879-6.22-13.879-13.896
			c0-7.672,6.2-13.887,13.879-13.887C162.048,67.896,168.253,74.116,168.253,81.788z"/>
	</g>
	<g>
		<path fill="#CB2027" d="M100.473,166.004c14.645,7.05,30.251,1.988,37.096-12.896c1.017-2.194-2.233-4.105-3.239-1.9
			c-5.938,12.918-19.111,17.718-31.957,11.528C100.2,161.703,98.295,164.953,100.473,166.004L100.473,166.004z"/>
	</g>
	<g>
		<path fill="#CB2027" d="M99.653,171.81c17.664,8.056,35.388,0.316,43.065-17.118c0.973-2.2-2.272-4.122-3.25-1.899
			c-6.772,15.367-22.106,22.968-37.921,15.768C99.364,167.564,97.45,170.804,99.653,171.81L99.653,171.81z"/>
	</g>
</g>
</svg>
