<?xml version="1.0" encoding="utf-8"?>
<!-- Generator: Adobe Illustrator 16.0.0, SVG Export Plug-In . SVG Version: 6.00 Build 0)  -->
<!DOCTYPE svg PUBLIC "-//W3C//DTD SVG 1.1//EN" "http://www.w3.org/Graphics/SVG/1.1/DTD/svg11.dtd">
<svg version="1.1" id="Layer_1" xmlns="http://www.w3.org/2000/svg" xmlns:xlink="http://www.w3.org/1999/xlink" x="0px" y="0px"
	 width="200px" height="50px" viewBox="0 0 200 50" enable-background="new 0 0 200 50" xml:space="preserve">
<g>
	<path d="M28.23,38.298c-0.068,0-0.309-0.011-0.724-0.034c-0.414-0.021-0.897-0.115-1.459-0.283
		c-0.559-0.168-1.154-0.433-1.782-0.789c-0.623-0.359-1.205-0.873-1.743-1.545s-0.978-1.517-1.326-2.535
		c-0.348-1.018-0.52-2.277-0.52-3.777V20.94h4.093v8.394c0,0.493,0.046,0.996,0.137,1.512c0.09,0.516,0.257,0.985,0.502,1.41
		c0.247,0.426,0.593,0.778,1.042,1.059c0.446,0.279,1.04,0.418,1.779,0.418c0.735,0,1.331-0.139,1.778-0.418
		c0.449-0.279,0.797-0.633,1.04-1.059c0.248-0.425,0.417-0.895,0.504-1.41c0.089-0.516,0.135-1.019,0.135-1.512V20.94h4.096v8.394
		c0,1.5-0.174,2.76-0.522,3.777c-0.346,1.02-0.788,1.863-1.324,2.535s-1.12,1.186-1.746,1.545c-0.625,0.356-1.218,0.621-1.777,0.789
		c-0.561,0.168-1.047,0.263-1.464,0.283C28.535,38.287,28.297,38.298,28.23,38.298z"/>
	<path d="M46.121,20.505c0.068,0,0.309,0.01,0.722,0.032c0.415,0.023,0.902,0.118,1.461,0.287c0.562,0.165,1.152,0.429,1.78,0.788
		c0.626,0.358,1.21,0.872,1.743,1.544c0.541,0.672,0.981,1.518,1.329,2.536c0.348,1.019,0.521,2.276,0.521,3.774v8.496h-4.098
		v-8.496c0-0.491-0.043-0.993-0.135-1.509c-0.089-0.514-0.256-0.984-0.501-1.41c-0.248-0.427-0.596-0.777-1.042-1.059
		c-0.445-0.28-1.04-0.42-1.78-0.42c-0.738,0-1.332,0.14-1.78,0.42c-0.444,0.28-0.792,0.632-1.038,1.059
		c-0.247,0.426-0.417,0.896-0.503,1.41c-0.092,0.516-0.136,1.018-0.136,1.509v8.496h-4.096v-8.496c0-1.498,0.174-2.757,0.52-3.774
		c0.346-1.019,0.79-1.863,1.326-2.536c0.536-0.672,1.118-1.186,1.746-1.544c0.625-0.359,1.219-0.623,1.78-0.788
		c0.559-0.169,1.04-0.264,1.443-0.287C45.788,20.515,46.031,20.505,46.121,20.505z"/>
	<path d="M102.127,27.318h-4.163c-0.114-0.357-0.253-0.709-0.419-1.057c-0.169-0.347-0.395-0.654-0.673-0.923
		c-0.279-0.271-0.621-0.483-1.024-0.639c-0.399-0.156-0.884-0.236-1.443-0.236c-0.826,0-1.493,0.168-2,0.504
		c-0.502,0.337-0.889,0.757-1.154,1.261c-0.27,0.502-0.449,1.047-0.541,1.627c-0.087,0.582-0.133,1.119-0.133,1.61
		c0,0.494,0.046,1.031,0.133,1.612c0.092,0.583,0.271,1.126,0.541,1.63c0.266,0.504,0.652,0.922,1.154,1.258
		c0.507,0.337,1.173,0.503,2,0.503c1.098,0,1.918-0.291,2.468-0.871c0.55-0.584,0.925-1.254,1.125-2.017h4.13
		c-0.133,0.896-0.354,1.675-0.654,2.335s-0.645,1.229-1.024,1.711s-0.794,0.878-1.244,1.191c-0.447,0.313-0.892,0.572-1.341,0.773
		c-1.053,0.471-2.205,0.704-3.459,0.704c-1.497-0.022-2.831-0.335-3.996-0.938c-0.491-0.27-0.98-0.61-1.459-1.024
		c-0.48-0.415-0.904-0.935-1.276-1.563c-0.368-0.623-0.667-1.375-0.889-2.246c-0.224-0.873-0.336-1.895-0.336-3.058
		s0.112-2.182,0.336-3.054c0.222-0.873,0.526-1.629,0.905-2.266c0.383-0.638,0.806-1.17,1.275-1.595
		c0.473-0.425,0.962-0.773,1.48-1.041c1.164-0.627,2.492-0.964,3.994-1.007c1.23,0.043,2.371,0.303,3.425,0.771
		c0.448,0.201,0.894,0.465,1.34,0.79c0.448,0.324,0.864,0.731,1.244,1.226c0.38,0.493,0.724,1.069,1.024,1.729
		C101.773,25.682,101.995,26.445,102.127,27.318z"/>
	<path d="M109.384,37.963h-4.096V15.3h4.096v12.423l5.003-6.783h4.533l-5.17,7.085l7.218,9.938h-4.53l-5.006-6.85l-2.048,2.652
		V37.963z"/>
	<path d="M137.337,27.285c0.046,0.336,0.084,0.684,0.119,1.041c0.032,0.359,0.05,0.738,0.05,1.141v0.605h-11.751
		c0.044,0.381,0.101,0.767,0.166,1.156c0.067,0.395,0.181,0.777,0.336,1.16c0.247,0.582,0.628,1.098,1.144,1.545
		c0.515,0.445,1.231,0.672,2.147,0.672s1.634-0.227,2.147-0.672c0.514-0.447,0.895-0.963,1.142-1.545h4.364
		c-0.176,0.784-0.432,1.467-0.753,2.049c-0.328,0.582-0.685,1.086-1.074,1.51c-0.394,0.427-0.813,0.777-1.261,1.059
		c-0.446,0.28-0.881,0.51-1.311,0.688c-1.027,0.402-2.117,0.604-3.255,0.604c-1.5-0.022-2.831-0.335-3.995-0.938
		c-0.494-0.27-0.979-0.61-1.464-1.024c-0.479-0.415-0.901-0.935-1.272-1.563c-0.369-0.623-0.668-1.375-0.893-2.246
		c-0.224-0.873-0.334-1.895-0.334-3.058s0.11-2.182,0.334-3.054c0.225-0.873,0.523-1.629,0.893-2.266
		c0.371-0.638,0.793-1.17,1.272-1.595c0.483-0.425,0.97-0.773,1.464-1.041c1.164-0.627,2.495-0.964,3.995-1.007
		c1.229,0.043,2.382,0.303,3.459,0.771c0.446,0.201,0.899,0.465,1.356,0.79c0.462,0.324,0.886,0.727,1.277,1.207
		c0.392,0.483,0.739,1.053,1.041,1.715C136.984,25.645,137.202,26.413,137.337,27.285z M133.109,27.285
		c-0.115-0.357-0.252-0.717-0.42-1.072c-0.17-0.357-0.397-0.684-0.688-0.976c-0.291-0.29-0.64-0.521-1.04-0.688
		c-0.402-0.169-0.873-0.252-1.411-0.252c-0.536,0-1.007,0.083-1.409,0.252c-0.406,0.167-0.75,0.397-1.041,0.688
		c-0.291,0.292-0.526,0.619-0.707,0.976c-0.178,0.355-0.313,0.715-0.402,1.072H133.109z"/>
	<path d="M140.6,25.909c0-1.164,0.248-2.076,0.737-2.737c0.493-0.659,1.031-1.156,1.613-1.493c0.692-0.403,1.478-0.649,2.35-0.739
		h4.7v4.064h-3.157c-0.446,0-0.811,0.077-1.09,0.233c-0.28,0.158-0.5,0.324-0.655,0.504c-0.182,0.225-0.303,0.472-0.371,0.739
		v11.481H140.6V25.909z"/>
	<polygon fill="#CB2027" points="66.123,26.588 66.228,26.445 72.22,18.236 66.967,18.236 61.17,26.096 61.17,11.702 56.426,11.702 
		56.426,37.962 61.17,37.962 61.17,33.1 63.543,30.023 63.55,30.018 63.543,30.045 72.037,34.861 76.902,32.613 	"/>
	<g>
		<path fill="#CB2027" d="M79.791,25.977c-0.174,0-0.344-0.016-0.514-0.035c0.88,3.568,1.188,8.361-1.816,12.021h4.098
			c0,0,4.281-6.029,1.616-13.646C82.391,25.324,81.17,25.977,79.791,25.977z"/>
		<path fill="#CB2027" d="M82.234,21.684c0,1.35-1.092,2.442-2.443,2.442c-1.35,0-2.439-1.093-2.439-2.442s1.09-2.441,2.439-2.441
			C81.143,19.242,82.234,20.335,82.234,21.684z"/>
	</g>
	<path d="M0,38.298V16.016h9.852c1.026,0,1.975,0.215,2.845,0.645c0.866,0.43,1.615,0.994,2.243,1.694
		c0.63,0.701,1.118,1.494,1.476,2.385c0.354,0.889,0.534,1.784,0.534,2.684c0,1.444-0.362,2.758-1.083,3.939
		c-0.724,1.182-1.7,2.035-2.935,2.557l5.085,8.379H13.15l-4.551-7.468H4.331v7.468L0,38.298L0,38.298z M4.332,27.029h5.432
		c0.394,0,0.767-0.094,1.111-0.28c0.346-0.188,0.646-0.444,0.896-0.769c0.25-0.323,0.449-0.705,0.595-1.146
		c0.147-0.438,0.22-0.908,0.22-1.411c0-0.523-0.085-1.004-0.25-1.443c-0.169-0.439-0.394-0.82-0.678-1.146
		c-0.279-0.324-0.604-0.574-0.969-0.753c-0.369-0.178-0.74-0.266-1.116-0.266H4.332V27.029z"/>
	<g>
		<path fill="#CB2027" d="M70.321,36.486c2.574,1.24,5.318,0.35,6.521-2.266c0.178-0.385-0.393-0.721-0.57-0.334
			c-1.044,2.271-3.359,3.115-5.617,2.027C70.272,35.73,69.937,36.303,70.321,36.486L70.321,36.486z"/>
	</g>
	<g>
		<path fill="#CB2027" d="M70.177,37.508c3.105,1.416,6.22,0.055,7.57-3.009c0.17-0.386-0.399-0.724-0.571-0.333
			c-1.191,2.701-3.886,4.037-6.666,2.771C70.125,36.762,69.789,37.332,70.177,37.508L70.177,37.508z"/>
	</g>
</g>
</svg>
